# xmcd
#
# Track frame offsets:
#	150
#	13737
#	28702
#	45225
#	65062
#	81887
#	99502
#	116502
#	134622
#	151392
#	169255
#	182845
#	197807
#	214330
#	234167
#	250990
#	268605
#	285607
#	303725
#	320495
#
# Disc length: 4510 seconds
#
# Revision: 1
# Processed by: cddbd v1.5.2PL0 Copyright (c) Steve Scherf et al.
# Submitted via: audiograbber 1.83.01
#
DISCID=23119c14
DTITLE=Various Artist - Top Hits Country Vol 0109-C
DYEAR=1900
DGENRE=Country
TTITLE0=Toby Keith - I'm Just Talkin' About Tonight (Teaching Vocal)
TTITLE1=Cyndi Thomson - What I Really Meant to Say (Teaching Vocal)
TTITLE2=Tammy Cochran - Angels in Waiting (Teaching Vocal)
TTITLE3=Shedaisy - Still Holding Out for You (Teaching Vocal)
TTITLE4=Daimond Rio - Sweet Summer (Teaching Vocal)
TTITLE5=Jessica Andrews - Helplessly, Hopelessly (Teaching Vocal)
TTITLE6=Travis Tritt - Love of a Woman (Teaching Vocal)
TTITLE7=Alan Jackson - Where I Come From (Teaching Vocal)
TTITLE8=Brooks and Dunn - Only in America (Teaching Vocal)
TTITLE9=Blake Shelton - Austin (Teaching Vocal)
TTITLE10=Toby Keith - I'm Just Talkin' About Tonight (With Backup Vocals)
TTITLE11=Cyndi Thomson - What I Really Meant to Say (With Backup Vocals)
TTITLE12=Tammy Cochran - Angels in Waiting (With Backup Vocals)
TTITLE13=Shedaisy - Still Holding Out for You (With Backup Vocals)
TTITLE14=Daimond Rio - Sweet Summer (With Backup Vocals)
TTITLE15=Jessica Andrews - Helplessly, Hopelessly (With Backup Vocals)
TTITLE16=Travis Tritt - Love of a Woman (With Backup Vocals)
TTITLE17=Alan Jackson - Where I Come From (With Backup Vocals)
TTITLE18=Brooks and Dunn - Only in America (With Backup Vocals)
TTITLE19=Blake Shelton - Austin (With Backup Vocals)
EXTD=Karaoke
EXTT0=
EXTT1=
EXTT2=
EXTT3=
EXTT4=
EXTT5=
EXTT6=
EXTT7=
EXTT8=
EXTT9=
EXTT10=
EXTT11=
EXTT12=
EXTT13=
EXTT14=
EXTT15=
EXTT16=
EXTT17=
EXTT18=
EXTT19=
PLAYORDER=
